<svg width="55" height="40" viewBox="0 0 55 40" fill="none" xmlns="http://www.w3.org/2000/svg">
<path d="M46.6041 23.0508C50.0795 23.0508 52.8975 20.2347 52.8975 16.7593C52.8975 13.2839 50.0794 10.4658 46.6041 10.4658C43.1296 10.4658 40.3115 13.2839 40.3115 16.7593C40.3116 20.2347 43.1296 23.0508 46.6041 23.0508Z" fill="black"/>
<path d="M54.6613 29.1146C54.3809 27.4296 52.9881 25.0714 51.9338 24.0178C51.7949 23.8782 51.1743 23.8459 51.0066 23.9498C49.7249 24.7381 48.2193 25.2021 46.6033 25.2021C44.9892 25.2021 43.4835 24.7381 42.2016 23.9498C42.0333 23.8459 41.4134 23.8782 41.2746 24.0178C40.9798 24.3126 40.6583 24.7049 40.3447 25.1599C41.193 26.757 41.8657 28.4535 42.1085 29.9145C42.3512 31.379 42.2724 32.7655 41.88 34.0296C43.2737 34.5338 44.9452 34.7551 46.6032 34.7551C50.928 34.7551 55.3537 33.2556 54.6613 29.1146Z" fill="black"/>
<path d="M27.2059 20.3957C32.8383 20.3957 37.4047 15.8293 37.4047 10.197C37.4047 4.56644 32.8383 0 27.2059 0C21.5745 0 17.0098 4.56644 17.0098 10.197C17.0098 15.8293 21.5744 20.3957 27.2059 20.3957Z" fill="black"/>
<path d="M35.8411 21.9572C35.6198 21.7369 34.6148 21.6806 34.3416 21.8497C32.2625 23.1289 29.8227 23.8777 27.2053 23.8777C24.5898 23.8777 22.1488 23.1289 20.0708 21.8497C19.7977 21.6805 18.7927 21.7369 18.5714 21.9572C16.8587 23.6681 14.6015 27.4929 14.1474 30.2195C13.0277 36.9358 20.2017 39.3605 27.2053 39.3605C34.2108 39.3605 41.3847 36.9358 40.265 30.2195C39.8109 27.4929 37.5537 23.6681 35.8411 21.9572Z" fill="black"/>
<path d="M8.12939 23.0508C11.6039 23.0508 14.4219 20.2347 14.4219 16.7593C14.4219 13.2839 11.6039 10.4658 8.12939 10.4658C4.65389 10.4658 1.83594 13.2839 1.83594 16.7593C1.83594 20.2347 4.65389 23.0508 8.12939 23.0508Z" fill="black"/>
<path d="M12.3039 29.9145C12.5619 28.3801 13.2901 26.5734 14.2029 24.9029C13.9485 24.5553 13.6941 24.2526 13.4594 24.0178C13.3205 23.8782 12.7007 23.8459 12.5323 23.9498C11.2505 24.7381 9.74474 25.2021 8.12987 25.2021C6.51479 25.2021 5.00811 24.7381 3.72731 23.9498C3.55969 23.8459 2.93816 23.8782 2.79929 24.0178C1.74235 25.0712 0.35315 27.4296 0.0717825 29.1146C-0.619663 33.2556 3.80524 34.755 8.12987 34.755C9.67323 34.755 11.2318 34.565 12.5619 34.1307C12.1428 32.8409 12.054 31.422 12.3039 29.9145Z" fill="black"/>
</svg>
