<svg width="53" height="52" viewBox="0 0 53 52" fill="none" xmlns="http://www.w3.org/2000/svg">
<path d="M26.5 34.6663C13.78 34.6663 11.5267 22.2286 11.1275 12.3637C11.0164 9.61963 10.9609 8.24759 12.0115 6.97814C13.062 5.70871 14.3194 5.50056 16.8341 5.08428C19.3163 4.67337 22.5612 4.33301 26.5 4.33301C30.4385 4.33301 33.6835 4.67337 36.1656 5.08428C38.6805 5.50056 39.9377 5.70871 40.9882 6.97814C42.0389 8.24759 41.9833 9.61963 41.8722 12.3637C41.4731 22.2286 39.2197 34.6663 26.5 34.6663Z" stroke="#1C274C" stroke-width="3"/>
<path d="M26.5 34.667V41.167" stroke="#1C274C" stroke-width="3" stroke-linecap="round"/>
<path d="M34.2288 47.6667H18.7705L19.5196 43.9918C19.7261 42.9791 20.6324 42.25 21.6851 42.25H31.3143C32.367 42.25 33.2733 42.9791 33.4798 43.9918L34.2288 47.6667Z" stroke="#1C274C" stroke-width="3" stroke-linecap="round" stroke-linejoin="round"/>
<path d="M41.958 10.833L44.0528 11.5181C46.2393 12.2332 47.3324 12.5907 47.9576 13.4418C48.583 14.293 48.583 15.4236 48.5828 17.6847V17.8419C48.5828 19.7068 48.5828 20.6393 48.1252 21.4022C47.6677 22.1651 46.8369 22.6179 45.1753 23.5236L38.6455 27.083" stroke="#1C274C" stroke-width="3"/>
<path d="M11.0419 10.833L8.94699 11.5181C6.76061 12.2332 5.66742 12.5907 5.04217 13.4418C4.4169 14.293 4.41693 15.4236 4.41699 17.6847V17.8419C4.41706 19.7068 4.41708 20.6393 4.87463 21.4022C5.33215 22.1651 6.16297 22.6179 7.82456 23.5236L14.3544 27.083" stroke="#1C274C" stroke-width="3"/>
<path d="M24.6139 13.0484C25.453 11.5715 25.8726 10.833 26.5 10.833C27.1274 10.833 27.547 11.5715 28.3861 13.0484L28.6032 13.4306C28.8415 13.8503 28.9607 14.0601 29.1467 14.1986C29.3326 14.337 29.5641 14.3884 30.0271 14.4912L30.4487 14.5848C32.0782 14.9466 32.8931 15.1274 33.087 15.739C33.2809 16.3506 32.7253 16.9879 31.6145 18.2625L31.327 18.5922C31.0114 18.9544 30.8535 19.1355 30.7824 19.3595C30.7115 19.5836 30.7354 19.8252 30.7831 20.3084L30.8266 20.7484C30.9944 22.4489 31.0785 23.2991 30.5711 23.6772C30.0634 24.0551 29.3006 23.7106 27.7749 23.0214L27.3802 22.8431C26.9465 22.6472 26.7299 22.5493 26.5 22.5493C26.2701 22.5493 26.0535 22.6472 25.6198 22.8431L25.2251 23.0214C23.6994 23.7106 22.9366 24.0551 22.4289 23.6772C21.9215 23.2991 22.0055 22.4489 22.1734 20.7484L22.2169 20.3084C22.2646 19.8252 22.2885 19.5836 22.2176 19.3595C22.1465 19.1355 21.9887 18.9544 21.673 18.5922L21.3856 18.2625C20.2746 16.9879 19.7192 16.3506 19.913 15.739C20.1069 15.1274 20.9217 14.9466 22.5513 14.5848L22.9728 14.4912C23.4359 14.3884 23.6674 14.337 23.8533 14.1986C24.0392 14.0601 24.1585 13.8503 24.3968 13.4306L24.6139 13.0484Z" stroke="#1C274C" stroke-width="3"/>
<path d="M39.75 47.667H13.25" stroke="#1C274C" stroke-width="3" stroke-linecap="round"/>
</svg>
