<svg width="49" height="49" viewBox="0 0 49 49" fill="none" xmlns="http://www.w3.org/2000/svg">
<path d="M6.125 20.4163C6.125 12.7167 6.125 8.86694 8.51696 6.47496C10.9089 4.08301 14.7587 4.08301 22.4583 4.08301H26.5417C34.2412 4.08301 38.0912 4.08301 40.483 6.47496C42.875 8.86694 42.875 12.7167 42.875 20.4163V28.583C42.875 36.2825 42.875 40.1325 40.483 42.5243C38.0912 44.9163 34.2412 44.9163 26.5417 44.9163H22.4583C14.7587 44.9163 10.9089 44.9163 8.51696 42.5243C6.125 40.1325 6.125 36.2825 6.125 28.583V20.4163Z" stroke="#1C274C" stroke-width="3"/>
<path d="M16.333 24.5H32.6663" stroke="#1C274C" stroke-width="3" stroke-linecap="round"/>
<path d="M16 33H32.3333" stroke="#1C274C" stroke-width="3" stroke-linecap="round"/>
<path d="M16.333 16.333H32.6663" stroke="#1C274C" stroke-width="3" stroke-linecap="round"/>
</svg>
