<svg width="42" height="46" viewBox="0 0 42 46" fill="none" xmlns="http://www.w3.org/2000/svg">
<path d="M37.5 13.125V35C37.5 38.5417 34.7917 41.25 31.25 41.25H8.125C8.125 43.5417 10 45.4167 12.2917 45.4167H33.3333C37.9167 45.4167 41.6667 41.6667 41.6667 37.0833V17.2917C41.6667 15 39.7917 13.125 37.5 13.125Z" fill="black"/>
<path d="M6.25 0V4.16667H4.16667C1.875 4.16667 0 6.04167 0 8.33333V33.3333C0 35.625 1.875 37.5 4.16667 37.5H29.5833C31.875 37.5 33.75 35.625 33.75 33.3333V8.33333C33.75 6.04167 31.875 4.16667 29.5833 4.16667H27.5V0H23.3333V4.16667H10.4167V0H6.25ZM4.16667 14.5833H29.5833V33.3333H4.16667V14.5833Z" fill="black"/>
<path d="M24.3747 31.6663L19.3747 28.7497L14.583 31.6663L15.833 26.0413L11.458 22.2913L17.2913 21.8747L19.583 16.458L21.8747 21.6663L27.708 22.2913L23.333 26.0413L24.3747 31.6663Z" fill="black"/>
</svg>
