<svg width="55" height="40" viewBox="0 0 55 40" fill="none" xmlns="http://www.w3.org/2000/svg">
  <!-- Speech bubble -->
  <path d="M43 1H12C7.02944 1 3 5.02944 3 10V24C3 28.9706 7.02944 33 12 33H19L17 39L26 33H43C47.9706 33 52 28.9706 52 24V10C52 5.02944 47.9706 1 43 1Z" fill="black"/>
  <!-- Question mark dot -->
  <circle cx="27.5" cy="27" r="2" fill="white"/>
  <!-- Question mark curve -->
  <path d="M27.5 8C23.9101 8 21 10.9101 21 14.5C21 15.6046 21.8954 16.5 23 16.5C24.1046 16.5 25 15.6046 25 14.5C25 13.1193 26.1193 12 27.5 12C28.8807 12 30 13.1193 30 14.5C30 15.5 29.3 16.3 27.9 17.3C26.7 18.1 25.5 19.3 25.5 21.5V22.5C25.5 23.6046 26.3954 24.5 27.5 24.5C28.6046 24.5 29.5 23.6046 29.5 22.5V21.8C29.5 21 30 20.3 31 19.6C32.8 18.3 34 16.6 34 14.5C34 10.9101 31.0899 8 27.5 8Z" fill="white"/>
</svg>
