<svg width="97" height="97" viewBox="0 0 97 97" fill="none" xmlns="http://www.w3.org/2000/svg">
<rect y="0.573242" width="96.4268" height="96.4268" rx="48.2134" fill="#00408D"/>
<ellipse cx="71.3294" cy="50.4378" rx="10.5673" ry="10.8975" fill="#F3EFE9"/>
<path d="M44.2506 35.5774C48.9924 35.5774 52.8365 39.5692 52.8365 44.4934C52.8365 49.4177 48.9925 53.4094 44.2506 53.4094C39.5087 53.4094 35.6647 49.4177 35.6647 44.4934C35.6648 39.5692 39.5088 35.5774 44.2506 35.5774Z" fill="#E75234"/>
<path d="M44.2506 35.5774C48.9924 35.5774 52.8365 39.5692 52.8365 44.4934C52.8365 49.4177 48.9925 53.4094 44.2506 53.4094C39.5087 53.4094 35.6647 49.4177 35.6647 44.4934C35.6648 39.5692 39.5088 35.5774 44.2506 35.5774Z" stroke="#00408D"/>
<ellipse cx="20.8044" cy="52.0888" rx="7.59526" ry="7.92549" fill="#F3EFE9"/>
</svg>
