<svg width="56" height="57" viewBox="0 0 56 57" fill="none" xmlns="http://www.w3.org/2000/svg">
<path d="M4.66699 23.75L28.0003 10.6875L51.3337 23.75L41.8736 29.0458M4.66699 23.75L14.127 29.0458M4.66699 23.75V38M41.8736 29.0458C41.9572 29.2557 42.0003 29.4699 42.0003 29.6875V41.5625M41.8736 29.0458C41.8449 28.9733 41.8111 28.9016 41.7728 28.8301C40.5833 26.6159 34.8694 24.9375 28.0003 24.9375C21.1311 24.9375 15.4174 26.6159 14.2278 28.8301C14.1894 28.9016 14.1558 28.9733 14.127 29.0458M14.127 29.0458C14.0434 29.2557 14.0003 29.4699 14.0003 29.6875V41.5625M14.0003 41.5625C14.0003 44.1859 20.2683 46.3125 28.0003 46.3125C35.7323 46.3125 42.0003 44.1859 42.0003 41.5625M14.0003 41.5625C14.0003 38.9391 20.2683 36.8125 28.0003 36.8125C35.7323 36.8125 42.0003 38.9391 42.0003 41.5625" stroke="black" stroke-width="3" stroke-linecap="round" stroke-linejoin="round"/>
</svg>
