<svg width="14" height="13" viewBox="0 0 14 13" fill="none" xmlns="http://www.w3.org/2000/svg">
<path d="M6.03909 5.19939C6.03909 5.02152 6.16073 4.86907 6.33101 4.86907H7.66899C7.83927 4.86907 7.96091 5.02152 7.96091 5.19939L7.79062 8.04521C7.79062 8.19767 7.64466 8.32471 7.4987 8.32471H6.5013C6.33101 8.32471 6.20938 8.22308 6.20938 8.04521L6.03909 5.19939ZM8.03389 9.74763C8.03389 10.3574 7.57168 10.8148 7.01216 10.8148C6.42832 10.8148 5.99044 10.3574 5.99044 9.74763C5.99044 9.16322 6.42832 8.68044 7.01216 8.68044C7.57168 8.68044 8.03389 9.16322 8.03389 9.74763ZM8.00956 0.600329L13.848 11.1959C14.2859 12.009 13.7264 13 12.8263 13H1.17374C0.273647 13 -0.285869 11.9836 0.152013 11.1959L5.99044 0.600329C6.42832 -0.212764 7.57168 -0.187355 8.00956 0.600329ZM1.29537 11.5771C1.22239 11.6787 1.29537 11.7804 1.41701 11.7804H12.583C12.7046 11.7804 12.7776 11.6787 12.7046 11.5771L7.1338 1.46424C7.06082 1.3626 6.93918 1.3626 6.8662 1.46424L1.29537 11.5771Z" fill="#EF0000"/>
</svg>
