<svg width="69" height="69" viewBox="0 0 69 69" fill="none" xmlns="http://www.w3.org/2000/svg">
<path d="M29.4659 4.73226C30.5832 4.56621 31.7211 4.8452 32.6349 5.50924C33.5487 6.17328 34.1655 7.16936 34.3527 8.28335C34.5398 9.39733 34.2825 10.5403 33.6358 11.4665C32.9892 12.3927 32.005 13.0283 30.8948 13.2365C25.872 14.0883 21.3131 16.691 18.0261 20.5831C14.7392 24.4753 12.9364 29.4056 12.9375 34.5C12.9375 40.2187 15.2093 45.7032 19.253 49.747C23.2968 53.7907 28.7813 56.0625 34.5 56.0625V64.6875C17.8279 64.6875 4.3125 51.175 4.3125 34.5C4.3125 19.7081 15.0247 7.15876 29.4659 4.73226Z" fill="url(#paint0_linear_106_3951)"/>
<path d="M48.5645 12.3567C48.9427 11.9348 49.4003 11.5916 49.9112 11.3466C50.4221 11.1016 50.9763 10.9597 51.5421 10.929C52.1078 10.8983 52.6741 10.9794 53.2085 11.1677C53.7429 11.3559 54.235 11.6476 54.6566 12.0261C57.8161 14.8552 60.3428 18.3194 62.0713 22.1922C63.7999 26.0649 64.6914 30.259 64.6875 34.5C64.6875 51.175 51.1721 64.6875 34.5 64.6875V56.0625C38.8647 56.0626 43.1267 54.738 46.7225 52.264C50.3183 49.79 53.0786 46.2829 54.6386 42.2065C56.1986 38.1301 56.4847 33.6763 55.4592 29.4337C54.4337 25.1912 52.1448 21.3598 48.8951 18.446C48.0439 17.6823 47.5309 16.6118 47.4689 15.4698C47.4069 14.3279 47.801 13.2081 48.5645 12.3567Z" fill="url(#paint1_linear_106_3951)"/>
<defs>
<linearGradient id="paint0_linear_106_3951" x1="1513.69" y1="320.957" x2="1513.69" y2="5512.46" gradientUnits="userSpaceOnUse">
<stop stop-color="#E75234"/>
<stop offset="0.778846" stop-opacity="0"/>
</linearGradient>
<linearGradient id="paint1_linear_106_3951" x1="1543.88" y1="830.298" x2="1543.88" y2="4696.52" gradientUnits="userSpaceOnUse">
<stop stop-opacity="0.15"/>
<stop offset="1" stop-color="#CD3636" stop-opacity="0.55"/>
</linearGradient>
</defs>
</svg>
