<svg width="17" height="17" viewBox="0 0 17 17" fill="none" xmlns="http://www.w3.org/2000/svg">
<path d="M16.4062 1.78125C16.75 1.875 17 2.15625 17 2.5C17 10.5312 10.5 17 2.5 17C2.125 17 1.84375 16.7812 1.75 16.4375L1 13.1875C0.9375 12.8438 1.09375 12.4688 1.4375 12.3125L4.9375 10.8125C5.25 10.6875 5.59375 10.7812 5.8125 11.0312L7.375 12.9375C9.8125 11.7812 11.7812 9.78125 12.9062 7.40625L11 5.84375C10.75 5.625 10.6562 5.28125 10.7812 4.96875L12.2812 1.46875C12.4375 1.125 12.8125 0.9375 13.1562 1.03125L16.4062 1.78125Z" fill="white"/>
</svg>
