<svg width="34" height="34" viewBox="0 0 34 34" fill="none" xmlns="http://www.w3.org/2000/svg">
<circle cx="16.541" cy="16.541" r="16.541" fill="#612B07"/>
<path d="M13.998 20.9922H14.584V16.7441H13.998C13.6465 16.7441 13.4121 16.4805 13.4121 16.1582V14.752C13.4121 14.4297 13.6465 14.166 13.998 14.166H17.2793C17.6016 14.166 17.8652 14.4297 17.8652 14.752V20.9922H18.4512C18.7734 20.9922 19.0371 21.2559 19.0371 21.5781V22.9551C19.0371 23.3066 18.7734 23.541 18.4512 23.541H13.998C13.6465 23.541 13.4121 23.3066 13.4121 22.9551V21.5781C13.4121 21.2559 13.6465 20.9922 13.998 20.9922ZM16.2246 8.54102C17.3672 8.54102 18.334 9.50781 18.334 10.6504C18.334 11.8223 17.3672 12.7598 16.2246 12.7598C15.0527 12.7598 14.1152 11.8223 14.1152 10.6504C14.1152 9.50781 15.0527 8.54102 16.2246 8.54102Z" fill="white"/>
</svg>
