<svg width="249" height="73" viewBox="0 0 249 73" fill="none" xmlns="http://www.w3.org/2000/svg">
<ellipse cx="230.434" cy="18.136" rx="17.7804" ry="18.136" fill="#F3EFE9"/>
<ellipse cx="186.694" cy="19.2029" rx="15.2911" ry="15.6467" fill="#F3EFE9"/>
<ellipse cx="147.933" cy="21.692" rx="14.2243" ry="14.5799" fill="#F3EFE9"/>
<path d="M111.305 1.42236C117.786 1.42253 123.04 6.83581 123.04 13.5132C123.04 20.1905 117.786 25.6038 111.305 25.604C104.824 25.604 99.5702 20.1906 99.5701 13.5132C99.5701 6.8357 104.824 1.42236 111.305 1.42236Z" fill="#E75234"/>
<path d="M111.305 1.42236C117.786 1.42253 123.04 6.83581 123.04 13.5132C123.04 20.1905 117.786 25.6038 111.305 25.604C104.824 25.604 99.5702 20.1906 99.5701 13.5132C99.5701 6.8357 104.824 1.42236 111.305 1.42236Z" stroke="#00408D"/>
<ellipse cx="79.3004" cy="24.1814" rx="10.3126" ry="10.6682" fill="#F3EFE9"/>
<ellipse cx="50.1406" cy="27.7375" rx="8.17897" ry="8.53458" fill="#F3EFE9"/>
<ellipse cx="26.315" cy="28.8041" rx="5.68972" ry="6.04533" fill="#F3EFE9"/>
<ellipse cx="4.26729" cy="31.649" rx="4.26729" ry="4.6229" fill="#F3EFE9"/>
<path d="M69.02 67H64.8L70.58 53.6H75.96L81.76 67H77.44L74.26 59.26L73.38 57H73.12L72.26 59.26L69.02 67ZM78.1 64.52H68.22V61.14H78.1V64.52ZM86.7425 67.2C85.7158 67.2 84.8425 66.9933 84.1225 66.58C83.4158 66.1533 82.8758 65.5467 82.5025 64.76C82.1425 63.9733 81.9625 63.04 81.9625 61.96C81.9625 60.8667 82.1425 59.9333 82.5025 59.16C82.8625 58.3733 83.3825 57.7733 84.0625 57.36C84.7558 56.9333 85.5958 56.72 86.5825 56.72C87.7692 56.72 88.6625 56.98 89.2625 57.5C89.8625 58.0067 90.2358 58.68 90.3825 59.52H90.9625V61.84H90.5825C90.5825 61.1333 90.3758 60.6733 89.9625 60.46C89.5625 60.2467 88.9425 60.14 88.1025 60.14C87.5292 60.14 87.0692 60.2 86.7225 60.32C86.3758 60.44 86.1292 60.6333 85.9825 60.9C85.8358 61.1533 85.7625 61.5067 85.7625 61.96C85.7625 62.4 85.8358 62.7533 85.9825 63.02C86.1292 63.2867 86.3758 63.48 86.7225 63.6C87.0692 63.7067 87.5292 63.76 88.1025 63.76C88.6625 63.76 89.1225 63.7133 89.4825 63.62C89.8558 63.5267 90.1292 63.3533 90.3025 63.1C90.4892 62.8333 90.5825 62.46 90.5825 61.98H90.9625L91.2425 64.28H90.6225C90.4625 65.28 90.0692 66.02 89.4425 66.5C88.8292 66.9667 87.9292 67.2 86.7425 67.2ZM94.3425 67H90.8225V64.16L90.5825 63.9V53.6H94.3425V67ZM102.741 67.2C101.195 67.2 99.8681 66.92 98.7614 66.36C97.6547 65.7867 96.8081 64.9867 96.2214 63.96C95.6347 62.92 95.3414 61.7 95.3414 60.3C95.3414 58.9 95.6347 57.6867 96.2214 56.66C96.8081 55.62 97.6547 54.82 98.7614 54.26C99.8681 53.6867 101.195 53.4 102.741 53.4C104.248 53.4 105.535 53.6267 106.601 54.08C107.681 54.5333 108.508 55.1867 109.081 56.04C109.655 56.8933 109.941 57.92 109.941 59.12V59.46H105.741V59.12C105.741 58.36 105.528 57.82 105.101 57.5C104.675 57.1667 103.908 57 102.801 57C101.895 57 101.188 57.0933 100.681 57.28C100.188 57.4533 99.8414 57.78 99.6414 58.26C99.4414 58.7267 99.3414 59.4067 99.3414 60.3C99.3414 61.18 99.4414 61.86 99.6414 62.34C99.8414 62.82 100.188 63.1533 100.681 63.34C101.188 63.5133 101.895 63.6 102.801 63.6C103.908 63.6 104.675 63.44 105.101 63.12C105.528 62.7867 105.741 62.24 105.741 61.48V61.14H109.941V61.48C109.941 62.6667 109.655 63.6933 109.081 64.56C108.508 65.4133 107.681 66.0667 106.601 66.52C105.535 66.9733 104.248 67.2 102.741 67.2ZM116.512 67.2C115.352 67.2 114.325 66.9933 113.432 66.58C112.552 66.1533 111.865 65.5467 111.372 64.76C110.879 63.9733 110.632 63.04 110.632 61.96C110.632 60.8667 110.879 59.9333 111.372 59.16C111.865 58.3733 112.552 57.7733 113.432 57.36C114.325 56.9333 115.352 56.72 116.512 56.72C117.685 56.72 118.712 56.9333 119.592 57.36C120.472 57.7733 121.159 58.3733 121.652 59.16C122.145 59.9333 122.392 60.8667 122.392 61.96C122.392 63.04 122.145 63.9733 121.652 64.76C121.159 65.5467 120.472 66.1533 119.592 66.58C118.712 66.9933 117.685 67.2 116.512 67.2ZM116.512 63.88C117.365 63.88 117.939 63.7467 118.232 63.48C118.525 63.2 118.672 62.6933 118.672 61.96C118.672 61.2267 118.525 60.72 118.232 60.44C117.939 60.16 117.365 60.02 116.512 60.02C115.659 60.02 115.085 60.16 114.792 60.44C114.499 60.72 114.352 61.2267 114.352 61.96C114.352 62.6933 114.499 63.2 114.792 63.48C115.085 63.7467 115.659 63.88 116.512 63.88ZM135.035 67H131.275V61.92C131.275 61.2133 131.122 60.7333 130.815 60.48C130.509 60.2133 129.942 60.08 129.115 60.08C128.289 60.08 127.735 60.2067 127.455 60.46C127.189 60.7 127.055 61.1467 127.055 61.8H126.675L126.355 59.98H127.015C127.095 59.42 127.275 58.8933 127.555 58.4C127.849 57.9067 128.275 57.5067 128.835 57.2C129.409 56.88 130.142 56.72 131.035 56.72C131.942 56.72 132.689 56.8867 133.275 57.22C133.875 57.5533 134.315 58.0067 134.595 58.58C134.889 59.1533 135.035 59.8067 135.035 60.54V67ZM127.055 67H123.295V56.92H126.815V60.02L127.055 60.12V67ZM147.887 67H144.127V61.92C144.127 61.2133 143.974 60.7333 143.667 60.48C143.36 60.2133 142.794 60.08 141.967 60.08C141.14 60.08 140.587 60.2067 140.307 60.46C140.04 60.7 139.907 61.1467 139.907 61.8H139.527L139.207 59.98H139.867C139.947 59.42 140.127 58.8933 140.407 58.4C140.7 57.9067 141.127 57.5067 141.687 57.2C142.26 56.88 142.994 56.72 143.887 56.72C144.794 56.72 145.54 56.8867 146.127 57.22C146.727 57.5533 147.167 58.0067 147.447 58.58C147.74 59.1533 147.887 59.8067 147.887 60.54V67ZM139.907 67H136.147V56.92H139.667V60.02L139.907 60.12V67ZM154.618 67.2C153.485 67.2 152.478 67.0267 151.598 66.68C150.718 66.3333 150.032 65.7733 149.538 65C149.045 64.2267 148.798 63.2133 148.798 61.96C148.798 60.8667 149.045 59.9333 149.538 59.16C150.032 58.3733 150.705 57.7733 151.558 57.36C152.425 56.9333 153.418 56.72 154.538 56.72C155.698 56.72 156.705 56.9133 157.558 57.3C158.412 57.6733 159.072 58.2333 159.538 58.98C160.005 59.7133 160.238 60.62 160.238 61.7C160.238 61.8733 160.232 62.0333 160.218 62.18C160.218 62.3133 160.205 62.4733 160.178 62.66H151.258V60.76H157.458L156.638 61.94C156.638 61.82 156.638 61.7067 156.638 61.6C156.638 61.48 156.638 61.36 156.638 61.24C156.638 60.6267 156.478 60.2 156.158 59.96C155.852 59.72 155.285 59.6 154.458 59.6C153.605 59.6 153.025 59.7333 152.718 60C152.425 60.2667 152.278 60.7467 152.278 61.44V62.4C152.278 63.1067 152.432 63.5867 152.738 63.84C153.045 64.0933 153.625 64.22 154.478 64.22C155.238 64.22 155.745 64.1533 155.998 64.02C156.265 63.8733 156.398 63.6533 156.398 63.36V63.14H160.158V63.38C160.158 64.1267 159.932 64.7867 159.478 65.36C159.025 65.9333 158.385 66.3867 157.558 66.72C156.732 67.04 155.752 67.2 154.618 67.2ZM166.905 67.2C165.718 67.2 164.685 66.9933 163.805 66.58C162.925 66.1533 162.245 65.5467 161.765 64.76C161.285 63.9733 161.045 63.04 161.045 61.96C161.045 60.8667 161.285 59.9333 161.765 59.16C162.245 58.3733 162.925 57.7733 163.805 57.36C164.685 56.9333 165.718 56.72 166.905 56.72C168.051 56.72 169.045 56.9067 169.885 57.28C170.738 57.64 171.391 58.1533 171.845 58.82C172.311 59.4867 172.545 60.2733 172.545 61.18V61.5H168.805V61.34C168.805 60.82 168.625 60.48 168.265 60.32C167.918 60.16 167.438 60.08 166.825 60.08C166.131 60.08 165.618 60.2 165.285 60.44C164.951 60.6667 164.785 61.1733 164.785 61.96C164.785 62.7333 164.951 63.24 165.285 63.48C165.618 63.7067 166.131 63.82 166.825 63.82C167.438 63.82 167.918 63.7467 168.265 63.6C168.625 63.44 168.805 63.1 168.805 62.58V62.4H172.545V62.74C172.545 63.6333 172.311 64.4133 171.845 65.08C171.391 65.7467 170.738 66.2667 169.885 66.64C169.045 67.0133 168.051 67.2 166.905 67.2ZM181.089 67H178.449C177.196 67 176.209 66.6867 175.489 66.06C174.783 65.4333 174.429 64.4667 174.429 63.16V55.18H178.189V62.62C178.189 63.02 178.263 63.2867 178.409 63.42C178.569 63.5533 178.863 63.62 179.289 63.62H181.089V67ZM181.089 60H172.949V56.92H181.089V60Z" fill="#F3EFE9"/>
</svg>
