<svg width="46" height="47" viewBox="0 0 46 47" fill="none" xmlns="http://www.w3.org/2000/svg">
<g clip-path="url(#clip0_184_3806)">
<path d="M44.0834 21.5417H38.3334V3.24695C38.3334 1.3429 37.019 0 35.1555 0H3.37714C1.51171 0 0 1.54457 0 3.45055V43.5494C0 45.4554 1.51171 47 3.37714 47H40.25C43.4264 47 46 44.3705 46 41.125V23.5C46 22.4184 45.1419 21.5417 44.0834 21.5417ZM3.83336 3.9167H34.5V23.5V41.125C34.5 41.2129 34.5023 41.3005 34.5065 41.3878C34.532 41.9802 34.6436 42.5493 34.8283 43.0834H3.83336V3.9167ZM42.1666 41.125C42.1666 42.2074 41.3093 43.0833 40.25 43.0833C40.2068 43.0833 40.1646 43.0795 40.1222 43.0767C39.2594 42.9976 38.4173 42.1372 38.3398 41.2556C38.337 41.2122 38.3334 41.1691 38.3334 41.125V25.4583H42.1667V41.125H42.1666Z" fill="black"/>
<path d="M7.66664 19.5833H19.1666C20.2252 19.5833 21.0833 18.7066 21.0833 17.625V7.8333C21.0833 6.75175 20.2252 5.875 19.1666 5.875H7.66664C6.6081 5.875 5.75 6.75175 5.75 7.8333V17.625C5.75 18.7066 6.6081 19.5833 7.66664 19.5833ZM9.58336 9.7917H17.25V15.6667H9.58336V9.7917Z" fill="black"/>
<path d="M30.6666 23.5H7.66664C6.6081 23.5 5.75 24.3768 5.75 25.4583C5.75 26.5399 6.6081 27.4166 7.66664 27.4166H30.6666C31.7252 27.4166 32.5833 26.5399 32.5833 25.4583C32.5834 24.3768 31.7252 23.5 30.6666 23.5Z" fill="black"/>
<path d="M15.3334 29.375H7.66664C6.6081 29.375 5.75 30.2518 5.75 31.3333C5.75 32.4149 6.6081 33.2916 7.66664 33.2916H15.3333C16.3918 33.2916 17.2499 32.4149 17.2499 31.3333C17.25 30.2518 16.3919 29.375 15.3334 29.375Z" fill="black"/>
<path d="M30.6666 7.83301H24.9166C23.8581 7.83301 23 8.70976 23 9.79131C23 10.8729 23.8581 11.7496 24.9166 11.7496H30.6666C31.7252 11.7496 32.5833 10.8729 32.5833 9.79131C32.5834 8.70985 31.7252 7.83301 30.6666 7.83301Z" fill="black"/>
<path d="M30.6666 13.708H24.9166C23.8581 13.708 23 14.5848 23 15.6663C23 16.7479 23.8581 17.6246 24.9166 17.6246H30.6666C31.7252 17.6246 32.5833 16.7479 32.5833 15.6663C32.5834 14.5849 31.7252 13.708 30.6666 13.708Z" fill="black"/>
<path d="M30.6663 29.375H22.9996C21.9411 29.375 21.083 30.2518 21.083 31.3333C21.083 32.4149 21.9411 33.2916 22.9996 33.2916H30.6663C31.7248 33.2916 32.5829 32.4149 32.5829 31.3333C32.583 30.2518 31.7248 29.375 30.6663 29.375Z" fill="black"/>
<path d="M15.3334 35.25H7.66664C6.6081 35.25 5.75 36.1268 5.75 37.2083C5.75 38.2899 6.6081 39.1666 7.66664 39.1666H15.3333C16.3918 39.1666 17.2499 38.2899 17.2499 37.2083C17.25 36.1268 16.3919 35.25 15.3334 35.25Z" fill="black"/>
<path d="M30.6663 35.25H22.9996C21.9411 35.25 21.083 36.1268 21.083 37.2083C21.083 38.2899 21.9411 39.1666 22.9996 39.1666H30.6663C31.7248 39.1666 32.5829 38.2899 32.5829 37.2083C32.583 36.1268 31.7248 35.25 30.6663 35.25Z" fill="black"/>
</g>
<defs>
<clipPath id="clip0_184_3806">
<rect width="46" height="47" fill="white"/>
</clipPath>
</defs>
</svg>
